<?xml version="1.0" standalone="no"?>
<!DOCTYPE svg PUBLIC "-//W3C//DTD SVG 20010904//EN"
 "http://www.w3.org/TR/2001/REC-SVG-20010904/DTD/svg10.dtd">
<svg version="1.0" xmlns="http://www.w3.org/2000/svg"
 width="271.000000pt" height="83.000000pt" viewBox="0 0 271.000000 83.000000"
 preserveAspectRatio="xMidYMid meet">

<g transform="translate(0.000000,83.000000) scale(0.100000,-0.100000)"
fill="#000000" stroke="none">
<path d="M34 796 l-34 -34 1 -153 c1 -150 1 -153 14 -99 16 67 40 89 170 156
l94 49 68 -34 c37 -19 70 -37 73 -40 3 -3 17 -12 32 -20 15 -8 41 -26 58 -40
l31 -26 1 -115 c1 -65 -4 -130 -11 -150 -13 -38 -60 -73 -187 -136 l-72 -36
-70 35 c-99 50 -149 83 -168 112 -9 14 -20 22 -25 19 -5 -3 -9 -53 -9 -111 l0
-105 34 -34 34 -34 1287 0 1287 0 34 34 34 34 0 347 0 347 -34 34 -34 34
-1287 0 -1287 0 -34 -34z m1296 -311 c0 -47 4 -85 8 -85 5 0 21 14 37 30 27
28 65 41 65 22 0 -5 -17 -25 -37 -46 l-37 -36 49 -50 49 -50 -29 0 c-20 0 -41
11 -67 37 l-38 37 0 -38 c0 -33 -3 -37 -22 -34 -22 3 -23 7 -26 138 -1 74 0
141 3 148 2 6 14 12 25 12 19 0 20 -6 20 -85z m1160 -1 l0 -86 35 31 c21 18
47 31 62 31 27 0 27 -1 -17 -45 l-44 -45 42 -43 c23 -23 42 -46 42 -50 0 -19
-49 -4 -75 23 -36 38 -45 38 -45 -1 0 -26 -3 -30 -22 -27 -23 3 -23 6 -24 143
0 77 1 143 3 148 2 4 13 7 24 7 17 0 19 -8 19 -86z m-1820 6 l0 -61 68 3 67 3
3 58 c2 42 7 57 17 57 12 0 15 -24 15 -140 0 -118 -2 -140 -15 -140 -12 0 -15
13 -15 60 l0 60 -70 0 -70 0 0 -61 c0 -51 -3 -60 -17 -57 -15 3 -17 20 -20
132 -1 71 0 133 3 138 3 4 12 8 20 8 11 0 14 -14 14 -60z m1327 37 c28 -28 22
-85 -12 -114 -23 -21 -27 -28 -17 -42 16 -21 52 -89 52 -96 0 -3 -9 -5 -19 -5
-13 0 -32 20 -57 60 -24 39 -43 60 -55 60 -16 0 -19 -8 -19 -60 0 -53 -2 -60
-20 -60 -19 0 -20 7 -20 141 l0 141 75 -4 c53 -2 80 -8 92 -21z m-971 -88 c14
-15 20 -40 22 -95 l4 -74 -28 1 c-16 2 -39 -1 -52 -5 -32 -11 -81 11 -88 39
-11 46 31 85 92 85 14 0 24 6 24 14 0 20 -35 29 -59 17 -29 -16 -41 -13 -41 8
0 23 13 29 66 30 29 1 46 -5 60 -20z m210 7 c15 -12 16 -17 7 -27 -10 -10 -18
-10 -38 1 -19 10 -30 11 -50 2 -21 -10 -25 -18 -25 -55 0 -24 5 -48 12 -55 16
-16 61 -15 76 0 10 9 16 8 29 -5 16 -15 14 -17 -22 -33 -47 -19 -105 -7 -130
29 -30 42 -9 139 32 150 38 10 90 6 109 -7z m389 -11 c16 -15 25 -36 25 -55
l0 -30 -70 0 c-38 0 -70 -3 -70 -7 0 -13 34 -43 49 -43 9 0 27 7 39 16 18 13
26 13 38 4 19 -17 3 -35 -42 -50 -77 -26 -145 34 -130 113 14 73 110 104 161
52z m178 10 c1 -5 -7 -11 -18 -13 -42 -8 -55 -32 -55 -99 0 -55 -2 -63 -19
-63 -21 0 -30 27 -26 75 2 17 4 49 4 71 l1 41 55 -1 c30 0 56 -5 58 -11z m391
-7 c11 -15 16 -45 16 -94 l0 -71 -50 -6 c-62 -7 -96 4 -112 37 -18 41 10 74
72 82 53 7 60 14 34 35 -12 10 -22 10 -47 1 -37 -14 -57 -1 -37 23 8 10 29 15
61 15 38 0 51 -4 63 -22z m202 1 c14 -15 20 -40 22 -95 l4 -74 -26 0 c-25 0
-26 1 -26 68 0 70 -10 92 -41 92 -26 0 -33 -17 -39 -90 -4 -50 -9 -66 -22 -68
-14 -3 -17 9 -20 88 -2 51 -2 93 -1 94 1 1 31 2 66 4 54 1 67 -2 83 -19z"/>
<path d="M1874 496 c-13 -33 0 -51 41 -54 50 -4 75 21 48 50 -20 22 -81 25
-89 4z"/>
<path d="M948 339 c-22 -13 -23 -25 -2 -33 17 -6 54 19 54 36 0 11 -31 10 -52
-3z"/>
<path d="M1533 413 c-27 -10 -11 -23 28 -23 36 0 40 2 29 15 -12 15 -34 18
-57 8z"/>
<path d="M2108 339 c-22 -12 -23 -25 -2 -33 20 -8 54 11 54 29 0 17 -27 19
-52 4z"/>
<path d="M391 304 c0 -11 3 -14 6 -6 3 7 2 16 -1 19 -3 4 -6 -2 -5 -13z"/>
</g>
</svg>
